<mxfile host="65bd71144e">
    <diagram id="75FGouVWA-5HJnq9hStm" name="Page-1">
        <mxGraphModel dx="790" dy="376" grid="1" gridSize="10" guides="1" tooltips="1" connect="1" arrows="1" fold="1" page="1" pageScale="1" pageWidth="1169" pageHeight="827" math="0" shadow="0">
            <root>
                <mxCell id="0"/>
                <mxCell id="1" parent="0"/>
                <mxCell id="2" value="&lt;font style=&quot;font-size: 24px;&quot;&gt;FULL ADDER&lt;/font&gt;" style="rounded=0;whiteSpace=wrap;html=1;fillColor=#dae8fc;strokeColor=#6c8ebf;" parent="1" vertex="1">
                    <mxGeometry x="300" y="170" width="250" height="140" as="geometry"/>
                </mxCell>
                <mxCell id="3" value="a" style="text;html=1;align=center;verticalAlign=middle;whiteSpace=wrap;rounded=0;" parent="1" vertex="1">
                    <mxGeometry x="200" y="180" width="60" height="30" as="geometry"/>
                </mxCell>
                <mxCell id="4" value="b" style="text;html=1;align=center;verticalAlign=middle;whiteSpace=wrap;rounded=0;" parent="1" vertex="1">
                    <mxGeometry x="200" y="228" width="60" height="30" as="geometry"/>
                </mxCell>
                <mxCell id="6" value="" style="endArrow=classic;html=1;exitX=1;exitY=0.5;exitDx=0;exitDy=0;" parent="1" source="3" edge="1">
                    <mxGeometry width="50" height="50" relative="1" as="geometry">
                        <mxPoint x="220" y="235" as="sourcePoint"/>
                        <mxPoint x="300" y="195" as="targetPoint"/>
                    </mxGeometry>
                </mxCell>
                <mxCell id="7" value="" style="endArrow=classic;html=1;exitX=1;exitY=0.5;exitDx=0;exitDy=0;" parent="1" edge="1">
                    <mxGeometry width="50" height="50" relative="1" as="geometry">
                        <mxPoint x="260" y="242.8" as="sourcePoint"/>
                        <mxPoint x="300" y="243" as="targetPoint"/>
                    </mxGeometry>
                </mxCell>
                <mxCell id="8" value="sum" style="text;html=1;align=center;verticalAlign=middle;whiteSpace=wrap;rounded=0;" parent="1" vertex="1">
                    <mxGeometry x="600" y="195" width="60" height="30" as="geometry"/>
                </mxCell>
                <mxCell id="9" value="cout" style="text;html=1;align=center;verticalAlign=middle;whiteSpace=wrap;rounded=0;" parent="1" vertex="1">
                    <mxGeometry x="600" y="255" width="60" height="30" as="geometry"/>
                </mxCell>
                <mxCell id="10" value="" style="endArrow=classic;html=1;exitX=1;exitY=0.5;exitDx=0;exitDy=0;" parent="1" edge="1">
                    <mxGeometry width="50" height="50" relative="1" as="geometry">
                        <mxPoint x="560" y="209.81" as="sourcePoint"/>
                        <mxPoint x="600" y="209.81" as="targetPoint"/>
                    </mxGeometry>
                </mxCell>
                <mxCell id="11" value="" style="endArrow=classic;html=1;exitX=1;exitY=0.5;exitDx=0;exitDy=0;" parent="1" edge="1">
                    <mxGeometry width="50" height="50" relative="1" as="geometry">
                        <mxPoint x="560" y="269.61" as="sourcePoint"/>
                        <mxPoint x="600" y="269.61" as="targetPoint"/>
                    </mxGeometry>
                </mxCell>
                <mxCell id="17" value="cin" style="text;html=1;align=center;verticalAlign=middle;whiteSpace=wrap;rounded=0;" parent="1" vertex="1">
                    <mxGeometry x="200" y="270" width="60" height="30" as="geometry"/>
                </mxCell>
                <mxCell id="18" value="" style="endArrow=classic;html=1;exitX=1;exitY=0.5;exitDx=0;exitDy=0;" parent="1" edge="1">
                    <mxGeometry width="50" height="50" relative="1" as="geometry">
                        <mxPoint x="260" y="284.8" as="sourcePoint"/>
                        <mxPoint x="300" y="284.8" as="targetPoint"/>
                    </mxGeometry>
                </mxCell>
                <mxCell id="20" value="&lt;span style=&quot;box-sizing: border-box; color: rgb(34, 50, 61); font-family: &amp;quot;open sans&amp;quot;, sans-serif; font-size: 15px; font-style: inherit; font-variant-ligatures: normal; font-variant-caps: normal; font-weight: 400; letter-spacing: normal; orphans: 2; text-align: start; text-indent: 0px; text-transform: none; widows: 2; word-spacing: 0px; -webkit-text-stroke-width: 0px; white-space: normal; background-color: rgb(255, 255, 255); text-decoration-thickness: initial; text-decoration-style: initial; text-decoration-color: initial;&quot;&gt;sum = A ^ B ^ Cin&lt;br style=&quot;box-sizing: border-box;&quot;&gt;&lt;/span&gt;&lt;span style=&quot;box-sizing: border-box; color: rgb(34, 50, 61); font-family: &amp;quot;open sans&amp;quot;, sans-serif; font-size: 15px; font-style: inherit; font-variant-ligatures: normal; font-variant-caps: normal; font-weight: 400; letter-spacing: normal; orphans: 2; text-align: start; text-indent: 0px; text-transform: none; widows: 2; word-spacing: 0px; -webkit-text-stroke-width: 0px; white-space: normal; background-color: rgb(255, 255, 255); text-decoration-thickness: initial; text-decoration-style: initial; text-decoration-color: initial;&quot;&gt;Cout = A·B + B·Cin + A·Cin&lt;/span&gt;&lt;div&gt;&lt;br&gt;&lt;/div&gt;" style="text;whiteSpace=wrap;html=1;" parent="1" vertex="1">
                    <mxGeometry x="300" y="340" width="210" height="50" as="geometry"/>
                </mxCell>
                <mxCell id="21" value="&lt;font style=&quot;font-size: 24px;&quot;&gt;HALF ADDER&lt;/font&gt;" style="rounded=0;whiteSpace=wrap;html=1;fillColor=#fff2cc;strokeColor=#d6b656;" parent="1" vertex="1">
                    <mxGeometry x="380" y="690" width="250" height="140" as="geometry"/>
                </mxCell>
                <mxCell id="22" value="a" style="text;html=1;align=center;verticalAlign=middle;whiteSpace=wrap;rounded=0;" parent="1" vertex="1">
                    <mxGeometry x="270" y="715" width="60" height="30" as="geometry"/>
                </mxCell>
                <mxCell id="23" value="b" style="text;html=1;align=center;verticalAlign=middle;whiteSpace=wrap;rounded=0;" parent="1" vertex="1">
                    <mxGeometry x="270" y="775" width="60" height="30" as="geometry"/>
                </mxCell>
                <mxCell id="24" value="" style="endArrow=classic;html=1;exitX=1;exitY=0.5;exitDx=0;exitDy=0;" parent="1" source="22" edge="1">
                    <mxGeometry width="50" height="50" relative="1" as="geometry">
                        <mxPoint x="290" y="770" as="sourcePoint"/>
                        <mxPoint x="370" y="730" as="targetPoint"/>
                    </mxGeometry>
                </mxCell>
                <mxCell id="25" value="" style="endArrow=classic;html=1;exitX=1;exitY=0.5;exitDx=0;exitDy=0;" parent="1" edge="1">
                    <mxGeometry width="50" height="50" relative="1" as="geometry">
                        <mxPoint x="330" y="789.8" as="sourcePoint"/>
                        <mxPoint x="370" y="789.8" as="targetPoint"/>
                    </mxGeometry>
                </mxCell>
                <mxCell id="26" value="a.b" style="text;html=1;align=center;verticalAlign=middle;whiteSpace=wrap;rounded=0;" parent="1" vertex="1">
                    <mxGeometry x="680" y="715" width="60" height="30" as="geometry"/>
                </mxCell>
                <mxCell id="27" value="a^b" style="text;html=1;align=center;verticalAlign=middle;whiteSpace=wrap;rounded=0;" parent="1" vertex="1">
                    <mxGeometry x="680" y="775" width="60" height="30" as="geometry"/>
                </mxCell>
                <mxCell id="28" value="" style="endArrow=classic;html=1;exitX=1;exitY=0.5;exitDx=0;exitDy=0;" parent="1" edge="1">
                    <mxGeometry width="50" height="50" relative="1" as="geometry">
                        <mxPoint x="640" y="729.81" as="sourcePoint"/>
                        <mxPoint x="680" y="729.81" as="targetPoint"/>
                    </mxGeometry>
                </mxCell>
                <mxCell id="29" value="" style="endArrow=classic;html=1;exitX=1;exitY=0.5;exitDx=0;exitDy=0;" parent="1" edge="1">
                    <mxGeometry width="50" height="50" relative="1" as="geometry">
                        <mxPoint x="640" y="789.61" as="sourcePoint"/>
                        <mxPoint x="680" y="789.61" as="targetPoint"/>
                    </mxGeometry>
                </mxCell>
                <mxCell id="39" style="edgeStyle=none;html=1;exitX=1;exitY=0.75;exitDx=0;exitDy=0;" parent="1" source="30" edge="1">
                    <mxGeometry relative="1" as="geometry">
                        <mxPoint x="1530" y="960" as="targetPoint"/>
                    </mxGeometry>
                </mxCell>
                <mxCell id="30" value="&lt;font style=&quot;font-size: 24px;&quot;&gt;HALF ADDER&lt;/font&gt;" style="rounded=0;whiteSpace=wrap;html=1;fillColor=#fff2cc;strokeColor=#d6b656;" parent="1" vertex="1">
                    <mxGeometry x="800" y="855" width="250" height="140" as="geometry"/>
                </mxCell>
                <mxCell id="32" value="cin" style="text;html=1;align=center;verticalAlign=middle;whiteSpace=wrap;rounded=0;" parent="1" vertex="1">
                    <mxGeometry x="280" y="944" width="60" height="30" as="geometry"/>
                </mxCell>
                <mxCell id="33" value="" style="endArrow=classic;html=1;exitX=1;exitY=0.5;exitDx=0;exitDy=0;entryX=0;entryY=0.25;entryDx=0;entryDy=0;" parent="1" target="30" edge="1">
                    <mxGeometry width="50" height="50" relative="1" as="geometry">
                        <mxPoint x="739.9999999999998" y="790" as="sourcePoint"/>
                        <mxPoint x="780" y="790" as="targetPoint"/>
                        <Array as="points">
                            <mxPoint x="740" y="890"/>
                        </Array>
                    </mxGeometry>
                </mxCell>
                <mxCell id="34" value="" style="endArrow=classic;html=1;exitX=1;exitY=0.5;exitDx=0;exitDy=0;" parent="1" source="32" edge="1">
                    <mxGeometry width="50" height="50" relative="1" as="geometry">
                        <mxPoint x="750" y="954.8" as="sourcePoint"/>
                        <mxPoint x="790" y="954.8" as="targetPoint"/>
                    </mxGeometry>
                </mxCell>
                <mxCell id="48" style="edgeStyle=none;html=1;exitX=1;exitY=0.5;exitDx=0;exitDy=0;exitPerimeter=0;" parent="1" source="36" edge="1">
                    <mxGeometry relative="1" as="geometry">
                        <mxPoint x="1530" y="880" as="targetPoint"/>
                    </mxGeometry>
                </mxCell>
                <mxCell id="36" value="" style="shape=xor;whiteSpace=wrap;html=1;fillColor=#e1d5e7;strokeColor=#9673a6;" parent="1" vertex="1">
                    <mxGeometry x="1320" y="820" width="100" height="120" as="geometry"/>
                </mxCell>
                <mxCell id="37" style="edgeStyle=none;html=1;exitX=1;exitY=0.5;exitDx=0;exitDy=0;entryX=0.175;entryY=0.25;entryDx=0;entryDy=0;entryPerimeter=0;" parent="1" source="26" target="36" edge="1">
                    <mxGeometry relative="1" as="geometry">
                        <Array as="points">
                            <mxPoint x="1200" y="730"/>
                            <mxPoint x="1200" y="850"/>
                        </Array>
                    </mxGeometry>
                </mxCell>
                <mxCell id="38" style="edgeStyle=none;html=1;exitX=1;exitY=0.25;exitDx=0;exitDy=0;entryX=0.251;entryY=0.562;entryDx=0;entryDy=0;entryPerimeter=0;" parent="1" source="30" target="36" edge="1">
                    <mxGeometry relative="1" as="geometry"/>
                </mxCell>
                <mxCell id="40" value="" style="shape=image;verticalLabelPosition=bottom;labelBackgroundColor=default;verticalAlign=top;aspect=fixed;imageAspect=0;image=data:image/png,iVBORw0KGgoAAAANSUhEUgAAA64AAAIRCAYAAABK7eBmAAAAAXNSR0IArs4c6QAAAARnQU1BAACxjwv8YQUAAAAJcEhZcwAADsMAAA7DAcdvqGQAADdrSURBVHhe7d1PbFVXmi/sl28QekSHFr7BhItPQiCCnthJtW47gyCqT02QKkor4Y++Koka4ElFNyhIDCBihEIGkRzBp9QEBkFKSxiCGlUkJuUvyB6Uu5Wi7UFVRbFDsGkqdsqoQzO6ZMIdmIR9NjY+JufY65z1PBKDtfZulGq9Z7F+a6+99qpfnP7TvYBM/Evf38cvTv+p3A1tS82TGzVPbtQ8ufh/yh0AAACQEsEVAACApAmuAAAAJE1wBQAAIGmCKwAAAEkTXAEAAEia4AoAAEDSBFcAAACSJrgCAACQNMEVAACApAmuAAAAJE1wBQAAIGmCKwAAAEkTXAEAAEia4AoAAEDSBFcAaJgnYk91c3x0YHt8dGB7vFddU74BAHgMq35x+k/3yp00wxOx5/Xn4pUnH/RMT96Mw4N3ijfRZP/S9/fxi9N/KnfzY63tiPde64jOcn/Z7bsxHXfjs//4a/zbV9/FjfJ1Gk7NL9HaNbFn85r4h8rq6HxydeHC3Zi+XUftPvRbuBO/OXMzfl9zE82Ua81verYj/vHZNfEPT66OzuJc4/bd+HpyNi5euxM3vi3+X9Aucq35Hz1e03I8cV0ua/82/qHwD0lERGelI/asre2DlrR29eKhNSLiydXR+eSaeOWnz8WJA5vVP+lYuybeen17fPTaxnile01pEhQRUVu7b/1kTWwq3QErYm1HvPX69jjx0454pVIbWiMiOp9cHS92b4wTr22P96od6pbWZ7zOluC6TF56cb6nUavjHzY/Ue6ETKyOV17bHm89W+6H5bXpJ5vjo9c2xoulCf/C7geB1+cJAd/+d3x2+0FzevKOp600z7Mb473XOuqu3c5KR5ywfZ0W1tDxuqWtiT2vz72S8tGB7fHWs3nkCVuFl8WaeOvAxnix3B0RcXs2jn48axvDMsl2O02zPbsxPvrp95Ohu/Hbi9fi/ENb0p6ITc/+bbz2QnmSZStlM6n5R9v0k81xoru0Wn/7Tvz2oS1m89fv9NiXcfgP3z3oYMXlU/MPzy2mJ2fjX6/Oxu9/GH+fiE1r/yZe+6eOePH7p1KTN+OXXlNqK7nUvPG6qPb3317/2xbmietyeHZN4R+WO3F18u6Da0+uiX+0XZIsfBc3vpqN9z/+Mn5beCIVsSb+l6eurIRnNz40Cbr66Zfxy49vxvmH3ov6vn7/HEc/nY3p+72dT/5NzV2wXDb9pKM2tI59GYcHi6E15ur22zvx/sfX4pcXb8bV2xHTt/9P8QZoDcZrBNfl8dKzhW05k3fi/at3fvgR2S5Mfr6L8///g39IIiJeLP5GYFmsibd+2CUw5+qnf473v1p8xfrGV7Nx+MzcAowQwErZWPNe353418Wetnx7J97/+M9ZPJWh3RivmSO4Nt2a+F+VB62rX9156B2ozu7/ES89aEL7+/ZufF1sP7m6zd49IXXlp1UxeTPe/6rYsZjv4rwQwIp5IjYWX7m4fTduFprQTozXfM87rk1Wux//wbt85X36cytHPzRpklzeA1l2db3jWlR6N8u73k2j5udT/jxZPTVbryfipepz8ev7C5bTYzfj8B/me5+weN/d+O2n1+L89/8GrF0Te17smPvEw/e3374bVydn4+If7vidLCKPmi/XcCPOCqj9O+t7Z644lpfquMbC9b5p7Zrad3C//4TPf/xnXHxoC2hErH0iXnrxf8Y/+338oL1rvlzrjRyvH7Zp7Zr4xxc7HvqsVMTdmJ68G5999dc4X8eT3vJ/d0N+Tw99bm0xjRgX0uKJa1M9Ef9YKWzlKZwueeNacbuwrZJk7vbdLCcbrJBn/0fNN7Vjcrahk6Dik7Dyp0mKHty3Op6OmJvoVOdOzHylOCmPuV0JL3ZvnPu0g3fCie/iZpPPClj6+4Df1/H8Fqr3E69trAmt8f0nfH76XJx4fWPNjrRNP9kY7732XPz6Eb8Pn1lrM00er3/w/Welvh9/Hxq7V0dnZe4TOx+9vnHJddaQ31O9nx5sY4JrM5W+3Xr1q8Kqe2m7cFTW2C5MPmoOLPPeCctr09+VDvgojs0r5e/WxFuvPxevFBc757U6XvypyTkRvy/V7Ys/3dw6n8Sot96fXBO/fr0jNsUT8VJ1e5zoXrPIxH11vPJabdiltS3LeP3sxvhoCZ+ViifXrMzn/L69E1dv343p23djumbhKuaeCP9w7cGfdnuFQHBtok2biwPsnfj3mu0z38X5/yj++Bq/WgppeiL2vFDcYVDHoSLQQLWH2tyNvzRj9X6JXuwufJfw9p34zcUv45dn/jz35/5psA+sjldetEsne1/9tXRC+9xTyveqHfFS4gsbD9f7/Vo/8+c4+mntjrR4siP+9+sPtt/PbaF88Ps4enG29PtYE//8kxYJ8Cyq6eP12o54r3Tw0/TkbO0YfObPcfShcXhusWhZFxHvnxB++ONrcfjjm3G1cGl67D/v9xf/tN8rWIJr09RuE54e++vDe8y/ulNTdC++0G4fR4aStWtK76pEXP20vd6/IHWlQ23ibtxs9EToR5ievBlHP74Zv/+2sJjz7Z14vzRJsUuHuQNnSnUREZ2Vjvj1a9vjvdc3Jh9gpydvxi8/vlnzCZ8bX92Mw5/WPlX7Ydvm7dk4euZazTuGN76dfej30Vn5W/OpttDs8fqJ2PNPte+MXv30+89K1S6oz31W6s9xdKzwSUuLiMtOcG2Wmj35d+Oza/M9UboT/z5ZaPqmK21hdbzyT5vjvddLfw5sn3t3r7DK/tuLDiVjuf1NPF3vdrBlNj15Mw4PLnS4zJ24WDNhskuHiIg78f79T32UdT65Jn792va59/ES3EI8993ZBbZ9PvQ0ebFD/MrzqdWxsdCkVTV5vC69Pzs99uWin9i58Yf/rK3NSsfyPnXNnODaJDXfbr19J/5tgRWi2ndUfNOVNvHk6ugs/5nnnqc3r7EqDjH3eYcFJ/H3lQ/12/B3/r0gfvjUx9FPy1tm73vywYEyyTyBnby5yAmr5cOn7sRvFgytc8rzqY2p/G8lWTVz9QUfMpWVX/Uzd19OgmtT1H67dXryvxcebEvbhW1vIR9OSYUlKX//GApufDU7t5XxEQH2168t8zt5P8LN28UdBtBo5W8hL/yQ6SHf3q1ZRFz6icE8LsG1GWpOTF1sBae8vcV2YVrd3fht4aCN2j9fzjOpckoqy+n/xF/mm9RDm/g+wM4d6lUOf7mcurs6nvZvShto5nhd2oa8lM/yWURcMYJrE9S7Tfh75e0tXvSmfX334KlA+YCDf3I4GSvBlkLa1P0TSB86pTfWxK+r5hm0ogaO12tXx4ZCc2mf5SsF6idXm78sE8G10dZ2xD8XtgnPHeM+z0E1xT81nwZxWiR5uPGHa/Ebuw1YduV35zyZob3Nd0qveQatwXhNLcG1wWq/3TrnoUNqHvpT+j9wWiSZKO82cMABy6H87tyLNQd0QBv66mbtQmEjn1xBEzVtvC5t913ae6o/YpsxP4rg2lC13279MRr2wwSgRvl0Xk+fyEE5AEArWLbxeinbfX/UNmN+DMG1kdb+bfxD6XtQDx9Os9Cf0nfYmvXDBMjdt/8dn9VsP1sT//wTT/tpbxufbMzCOiyrpo3XD7+nWve3f9fWfuLv6/961CGsNJLg2kC124QXO0247Lv4t8naj8s35ocJ6ar9hprBn+VS/g5fRGf3/1ziydZPxEvVzfGRQ25oCbWf6Zv/4MjS+4SLLqA/EXte31j4igI0Q7PG68eddz8Re2rOprkT//5VofmD5f09LW2rc+sSXBtmTbzWXVjNnPcfhUcrb4fwTVfa2aZnN8avixOpBQd/aIJ53vl75bXNsefZOiYua9fEW68/F79u0KshsGTPboyPDmyOt+qp13giXqrWTogX+r587XbiR0zk7/8GXnnojA5ogiaN1zf+MBtXC+3FA/ET8VK1tu6nx/4avy/eUtDc39PDT4xzyAyCa6PUfLt14X8UHqm8HcIpq7ShTWvXxJ7q5jjx09onVVc/vbng4A/N8PvBmzWTlojV8cpPn4v3Xt8Ye559ojQJeCI2PdsRb72+OT56bWO8uKQJBjTWpr9bff8b2M/FRwc2x3vVjnhp7UI1+9xDi4T/+of5d7c8tIDe/Vy8V11T+HufiE3Pboz3/AZYZs0Zr+/ExfKn+V7bPlfzNfPvBX5Lt2fj/1vgtxRN/z2Vnug+2RH/+yeFv3vtmthTbLeJVb84/ad75U6W7qXq9kIx34nfnHnMSfizG+OjwoR+euzLOPyIHwVL8y99fx+/OP2ncjc/Vqlul0qdN4+aX8yaeOv1x5k0zO2s+c3H5bH+idhTXDmfvBm/HCx9iiRiCfcVrYm3Djx4cuZ3M78can7TTzbHieIur7rdjd9evBbnH7EjbCl/9/TkbHz2ZMcPdXz10z/H+/PunFl6vdf+d9Qxryr9O7Twf0v7yaHm5zR6vJ5TO4ev0yP+vqLm/J7uW3TuVcfvpsV44toQpXdHJu88fpF8dad224LtwrS1u3H1U5NvVtKdeP/jL+M3Y6WTKx/pblwduxlH65i0QDPc+MN/xm8m7y6hZucmxUfPPDq0xg/f2F7sBOL7Y/fgf5cvQBM1Z7z+/eDS/s7pydlH/n1FTf09fXWzjr+7vQiujVBzLPbduFrzbcqluhP/XizCJ31rjRbw7RImULfvxvTkbPz20y/jl2euxftfCa2stO/i93+4GYfPfBlHP52Nq5N3Y7rmFMt56vYPdxZ8HaS4feuhv6eg3vuKiu80ff1fxSvk5bv4/eC1OHzmz3H009n47eTdmJ7nczfTt+9P2i/+OQ4Pzi5Ys2W/H7wWRy/ejKu3S2P793/fD2N3abviIyy53v+r8L9nnv9tD6n5d+hu/GWRgE6raux4PefB3/mbsTtxdZ56e9zfUjTp9/S93w9em/v/Q+m/efr2nfjtpwu/f9uqbBUmK/lsp4E5ap7cqHlyo+bJhSeuAAAAJE1wBQAAIGmCKwAAAEkTXAEAAEia4AoAAEDSBFcAAACSJrgCAACQNMEVAACApAmuAAAAJE1wBQAAIGmCKwAAAEkTXAEAAEia4AoAAEDSVkXEvXInAAAApGJV/8CE4Eo2Du3dEv0DE+VuaFtqntyoeXKj5smFrcIAAAAkTXAFAAAgaYIrAAAASRNcAQAASJrgCgAAQNIEVwAAAJImuAIAAJA0wRUAAICkCa4AAAAkTXAFAAAgaYIrAAAASRNcAQAASJrgCgAAQNIEVwAAAJImuAIAAJA0wRUAAICkreofmLhX7oSVNxW3xq7ElYuXY3p8NCYLVypbe6Kz943Y+cKOWLe+cKEOh/Zuif6BiXI3JEDNkxs1T27UPLlpbM0LrqRn5sM4dfCdmuKeX0/07n8vdu/qKl9YkMGdJKl5cqPmyY2aJzdNqHlbhUnL2LE4VFeRR0SMxsjZapw6PVS+AK1DzZMbNU9u1Dy5aVLNe+JKOuZZmansPxP/b3ELwcxUfP7J4Tg9OFq4K6L3yETs7q7pmpdVSZKi5smNmic3ap7cNLHmPXElEVMx/EFtkfcemYg3d5X2va/vim1956P/yL5CZ8TIxQ/jVk0PpE7Nkxs1T27UPLlpbs0LrqRh5kqMjT9oVvYPPnLFJbqPR1+10B5/J66MFdqQOjVPbtQ8uVHz5KbJNS+4koTPPymuzvRE9wuLv6C97edvR6XQHvls8b3xkAo1T27UPLlR8+Sm2TUvuJKAqZi9UWhu3RXb6zkWe/0z0Vls37j+yO0FkA41T27UPLlR8+Sm+TUvuJKAyfimuK2gd2esK15eUCWe2lpojl+L2UIT0qXmyY2aJzdqntw0v+YFV1bezPWYLjQ7Nyy+rWBOV3RsKra/iNmZYhsSpebJjZonN2qe3CxDzQuurLyZa3V+5+lhHU/3lLsgfWqe3Kh5cqPmyc0y1Lzgyoq79fUXhVZPPFXPfvh5jcY3C6zQQErUPLlR8+RGzZOb5ah5wZWWtm7D8+UuaGtqntyoeXKj5slNvTUvuAIAAJA0wRUAAICkCa4kZuF97fNp3H56WClqntyoeXKj5slNc2pecGXF1buvHdqFmic3ap7cqHlysxw1L7iSnOmvp8pdC5r9y2ih9Xx0LLBCAylT8+RGzZMbNU9umlHzgisrb/3mqJT7HsfWzdFR7oMUqXlyo+bJjZonN8tQ84IrK2/9M9FZaE6OXIlbhfbChuKPg4XmpmdiXaEJyVLz5EbNkxs1T26WoeYFVxJQiae2Fprj12K20FzQ2GCMFJqVpxuyzgPLQM2TGzVPbtQ8uWl+zQuuJKArtvf2FNrn4neXF9sXPxXDF88V2vviZ7u6Cm1ImZonN2qe3Kh5ctP8mhdcScK6XW9Eb6E9efZwDD/iGO1blw/HpfFCR7Ua2wpNSJ2aJzdqntyoeXLT7JoXXEnEjti5v7hKMxqXDu6JC2NTtfvjZ4Zi+PSeOHG2ePrYvujr21FoQytQ8+RGzZMbNU9umlvzq/oHJu6VO2FlTMXwsWrtysuieuLVk+fj5QWOzS47tHdL9A9MlLthhah5cqPmyY2aJzfNq3lPXElIV7x8fDD6qsWVmkfYui/66ihySJeaJzdqntyoeXLTvJr3xJU0zQzF8CeDMXbjXEzWrNj0RKW6K372852xbf3CL28vxKokyVLz5EbNkxs1T24aXPOCK1kxuJMbNU9u1Dy5UfPkwlZhAAAAkia4AgAAkDTBFQAAgKQJrgAAACRNcAUAACBpgisAAABJE1wBAABImuAKAABA0gRXAAAAkia4AgAAkDTBFQAAgKQJrgAAACRNcAUAACBpqyLiXrkTAAAAUrGqf2BCcCUbh/Zuif6BiXI3tC01T27UPLlR8+TCVmEAAACSJrgCAACQNMEVAACApAmuAAAAJE1wBQAAIGmCKwAAAEkTXAEAAEia4AoAAEDSBFcAAACSJrgCAACQNMEVAACApAmuAAAAJE1wBQAAIGmCKwAAAEkTXAEAAEia4AoAAEDSVvUPTNwrd8LKm4pbY1fiysXLMT0+GpOFK5WtPdHZ+0bsfGFHrFtfuFCHQ3u3RP/ARLkbEqDmydjMUAx/8kFcGhyda1fPxNG+HbGufF8d1DwtQc2ThcbObTxxJT0zH8apvdU48e47MVIq8oiIyfHRGDl7IE4c3BMXLk+VrkILUvNk7NbYsTh18MCDCXxExI3rxVugrah5stCEuY3gSlrGjsWhg+88VNzzG42Rs9U4dXqofAFah5onVzNDceHYljjx7rk66x9anJonF02a2wiupGPmwzj17rmarsr+M3H05ET0D9z/c3Iw+qo9NfdMDh6IC2M1XdAa1DxZmorPL889cRoZL1+DdqTmyUgT5zaCK4mYiuEPaldmeo9MxJu7Svve13fFtr7z0X9kX6EzYuTih3GrpgdSp+bJ0VAMH6vG6bPFJ0490XvkTLy6teZGaBNqnpw0d24juJKGmSsxVliFrOwfjN3dxRtKuo9HX7XQHn8nriyySgNJUfPkaGwwLv1Q9z3Ru/9MHB04H7u7K7X3QbtQ8+SkyXMbwZUkfP5JcXWmJ7pf6Kq5Pp9tP387isP+yGeL742HVKh5clapvh19J8/H7l2Pd4oqtBo1Tw6aPbcRXEnAVMzeKDS37ort9RyLvf6Z6Cy2b1x/5PYCSIeaJ1Pdx+PowES82fer2FZPzUOrU/Nko/lzG8GVBEzGN8VtBb0761yNrMRTxfdDxq/FbKEJ6VLz5Ku+Wof2oebJQ/PnNoIrK2/mekwXmp0bFt9WMKcrOjYV21/E7EyxDYlS8wBAO1mGuY3gysqbuVbnd54e1vF07VHa0BLUPADQTpZhbiO4suJuff1FodUTT9WzH35eo/HNAis0kBI1DwC0k+WY2wiutLR1G54vd0FbU/MAQDupd24juAIAAJA0wRUAAICkCa4kZuF97fNp3H56WClqHgBoJ82Z2wiurLh697VDu1DzAEA7WY65jeBKcqa/nip3LWj2L6OF1vPRscAKDaRMzQMA7aQZcxvBlZW3fnNUyn2PY+vm6Cj3QYrUPADQTpZhbiO4svLWPxOdhebkyJW4VWgvbCj+OFhobnom1hWakCw1DwC0k2WY2wiuJKAST20tNMevxWyhuaCxwRgpNCtPN2SdB5aBmgcA2knz5zaCKwnoiu29PYX2ufjd5cX2xU/F8MVzhfa++NmurkIbUqbmAYB20vy5jeBKEtbteiN6C+3Js4dj+BHHaN+6fDgujRc6qtXYVmhC6tQ8ANBOmj23EVxJxI7Yub+4SjMalw7uiQtjU7X742eGYvj0njhxtnj62L7o69tRaEMrUPMAQDtp7txmVf/AxL1yJ6yMqRg+Vq1deVlUT7x68ny8vMCx2WWH9m6J/oGJcjesEDVPbobiwt4DNe8zLUXvkYnY3V3uraXmSYuaJzfNm9t44kpCuuLl44PRVy2u1DzC1n3RV0eRQ7rUPJmZuR7T5b4lWMp3ASEJap7sNG9uI7iSmK7Y1nc++k+eiVer+6JSPJ0sIiJ6olJ9O/pODkb/8eOxrY4ih7SpeahX54aFD+2AdqTmaU3NmdvYKkxWbKchN2qe3Kh5cqPmyYUnrgAAACRNcAUAACBpgisAAABJE1wBAABImuAKAABA0gRXAAAAkia4AgAAkDTBFQAAgKQJrgAAACRNcAUAACBpgisAAABJE1wBAABImuAKAABA0lZFxL1yJwAAAKRiVf/AhOBKNg7t3RL9AxPlbmhbap7cqHlyo+bJha3CAAAAJE1wBQAAIGmCKwAAAEkTXAEAAEia4AoAAEDSBFcAAACSJrgCAACQNMEVAACApAmuAAAAJE1wBQAAIGmCKwAAAEkTXAEAAEia4AoAAEDSBFcAAACSJrgCAACQNMEVAACApK3qH5i4V+6ElTcVt8auxJWLl2N6fDQmC1cqW3uis/eN2PnCjli3vnChDof2bon+gYlyN6RlZiiGP/kgLg2OzrWrZ+Jo345YV76vDmqedBnnyZhxniw0dpz3xJX0zHwYp/ZW48S778RIqcgjIibHR2Pk7IE4cXBPXLg8VboKre3W2LE4dfDAg8lMRMSN68VboPUZ58mYcZ4sNGGcF1xJy9ixOHTwnYeKe36jMXK2GqdOD5UvQOuZGYoLx7bEiXfP1Vn/0KKM8+TKOE8umjTOC66kY+bDOPXuuZquyv4zcfTkRPQP3P9zcjD6qj0190wOHogLYzVd0EKm4vPLc6vvI+Pla9BmjPNkyThPRpo4zguuJGIqhj+oXZnpPTIRb+4q7Xtf3xXb+s5H/5F9hc6IkYsfxq2aHmgFQzF8rBqnzxZX33ui98iZeHVrzY3QBozz5Mg4T06aO84LrqRh5kqMFVYhK/sHY3d38YaS7uPRVy20x9+JK4us0kByxgbj0g913xO9+8/E0YHzsbu7UnsftAPjPDkyzpOTJo/zgitJ+PyT4upMT3S/0FVzfT7bfv52FIf9kc8W3xsPKapU346+k+dj967HO1ESWoFxnpwZ58lBs8d5wZUETMXsjUJz667YXs+x2Oufic5i+8b1R24vgOR0H4+jAxPxZt+vYls9NQ8tyzhPpozzZKP547zgSgIm45vitoLenXWuRlbiqeL7IePXYrbQhFZQX61DqzPOk6/6ah1aXfPHecGVlTdzPaYLzc4Ni28rmNMVHZuK7S9idqbYBiAJxnmA9rYM47zgysqbuVbnd54e1vF07VHaACTIOA/Q3pZhnBdcWXG3vv6i0OqJp+rZDz+v0fhmgRUaAFaOcR6gvS3HOC+40tLWbXi+3AVAGzHOA7S3esd5wRUAAICkCa4AAAAkTXAlMQvva59P4/bTA7A8jPMA7a0547zgyoqrd187AK3JOA/Q3pZjnBdcSc7011PlrgXN/mW00Ho+OhZYoQEgHcZ5gPbWjHFecGXlrd8clXLf49i6OTrKfQCsPOM8QHtbhnFecGXlrX8mOgvNyZErcavQXthQ/HGw0Nz0TKwrNAFIhHEeoL0twzgvuJKASjy1tdAcvxazheaCxgZjpNCsPN2QdR4AGs44D9Demj/OC64koCu29/YU2ufid5cX2xc/FcMXzxXa++Jnu7oKbQDSYZwHaG/NH+cFV5Kwbtcb0VtoT549HMOPOEb71uXDcWm80FGtxrZCE4C0GOcB2luzx3nBlUTsiJ37i6s0o3Hp4J64MDZVuz9+ZiiGT++JE2eLp4/ti76+HYU2AOkxzgO0t+aO86v6BybulTthZUzF8LFq7crLonri1ZPn4+UFjs0uO7R3S/QPTJS7YYUMxYW9B2re7ViK3iMTsbu73FtLzZMW4zy5Mc6Tm+aN8564kpCuePn4YPRViys1j7B1X/TVUeSQrJnrMV3uW4KlfCMN0mCcJzPGebLTvHFecCUxXbGt73z0nzwTr1b3RaV4OllERPREpfp29J0cjP7jx2NbHUUO7apzw8IHGEC6jPNQL+M8rak547ytwmTFdhpyo+bJjZonN2qeXHjiCgAAQNIEVwAAAJImuAIAAJA0wRUAAICkCa4AAAAkTXAFAAAgaYIrAAAASRNcAQAASJrgCgAAQNIEVwAAAJImuAIAAJA0wRUAAICkCa4AAAAkbVVE3Ct3AgAAQCpW9Q9MCK5k49DeLdE/MFHuhral5smNmic3ap5c2CoMAABA0gRXAAAAkia4AgAAkDTBFQAAgKQJrgAAACRNcAUAACBpgisAAABJE1wBAABImuAKAABA0gRXAAAAkia4AgAAkDTBFQAAgKQJrgAAACRNcAUAACBpgisAAABJE1wBAABI2qr+gYl75U5YeVNxa+xKXLl4OabHR2OycKWytSc6e9+InS/siHXrCxfqcGjvlugfmCh3Q1pmhmL4kw/i0uDoXLt6Jo727Yh15fvqoOZpCWqeLJjbkLEGjPOeuJKemQ/j1N5qnHj3nRgpDewREZPjozFy9kCcOLgnLlyeKl2F1nZr7FicOnjgwcAeEXHjevEWaCtqniyY25CxRo3zgitpGTsWhw6+89CAPr/RGDlbjVOnh8oXoPXMDMWFY1vixLvn6qx/aHFqnlyY25CrBo/zgivpmPkwTr17rqarsv9MHD05Ef0D9/+cHIy+ak/NPZODB+LCWE0XtJCp+Pzy3ErkyHj5GrQjNU9GzG3IUnPGecGVREzF8Ae1q5G9RybizV2ldz3Wd8W2vvPRf2RfoTNi5OKHcaumB1rBUAwfq8bps8WVyJ7oPXImXt1acyO0CTVPTsxtyFHzxnnBlTTMXImxwopMZf9g7O4u3lDSfTz6qoX2+DtxxcokrWZsMC79UPc90bv/TBwdOB+7uyu190G7UPPkxNyGHDVxnBdcScLnnxRXJHui+4Wumuvz2fbzt6P4Exj5zPsgtKZK9e3oO3k+du9a2ul60KrUPDkwtyFnzRjnBVcSMBWzNwrNrbtiez1Hwa9/JjqL7RvXbamhtXQfj6MDE/Fm369iWz01D61OzZMNcxsy1cRxXnAlAZPxTXErTe/OOldmKvFUca/8+LWYLTShFdRX69A+1Dx5MLchX/XV+tIJrqy8mesxXWh2blh8K82crujYVGx/EbMzxTYAwAowt4GGE1xZeTPXHvvbTh1P1x4fDwCw4sxtoOEEV1bcra+/KLR64qnH3g8/Gt9YlQQAVpi5DTSe4EpLW7fh+XIXAEDLMreB+QmuAAAAJE1wBQAAIGmCK4lZ2rscjXuHBACgGcxtoBEEV1acdzkAgHZibgONJ7iSnOmvp8pdC5r9y2ih9Xx0WJUEABJjbgM/nuDKylu/OSrlvsexdXN0lPsAAJabuQ00nODKylv/THQWmpMjV+JWob2wofjjYKG56ZlYV2gCAKwIcxtoOMGVBFTiqa2F5vi1mC00FzQ2GCOFZuXphqxtAgD8SOY20GiCKwnoiu29PYX2ufjd5cXeBZmK4YvnCu198bNdXYU2AMBKMbeBRhNcScK6XW9Eb6E9efZwDD/i6Phblw/HpfFCR7Ua2wpNAICVZG4DjSW4kogdsXN/cWVyNC4d3BMXxqZq3wmZGYrh03vixNniiXv7oq9vR6ENALDSzG2gkVb1D0zcK3fCypiK4WPV2tXGRfXEqyfPx8t1HhV/aO+W6B+YKHfDChmKC3sP1LzPtBS9RyZid3e5t5aaJy1qntyY25Cb5o3znriSkK54+fhg9FWLq5OPsHVf9C1hYIfkzFyP6XLfEizlu4CQBDVPdsxtyEwTx3nBlcR0xba+89F/8ky8Wt0XleKJfBER0ROV6tvRd3Iw+o8fj20GdjLWucGhHeRFzdOazG2gXo8a520VJiu205AbNU9u1Dy5UfPkwhNXAAAAkia4AgAAkDTBFQAAgKQJrgAAACRNcAUAACBpgisAAABJE1wBAABImuAKAABA0gRXAAAAkia4AgAAkDTBFQAAgKQJrgAAACRNcAUAACBpqyLiXrkTAAAAUrGqf2BCcCUbh/Zuif6BiXI3tC01T27UPLlR8+TCVmEAAACSJrgCAACQNMEVAACApAmuAAAAJE1wBQAAIGmCKwAAAEkTXAEAAEia4AoAAEDSBFcAAACSJrgCAACQNMEVAACApAmuAAAAJE1wBQAAIGmCKwAAAEkTXAEAAEia4AoAAEDSVvUPTNwrd0JSZoZi+JMP4tLg6Fy7eiaO9u2IdeX76nBo75boH5god0MCpuLW2JW4cvFyTI+PxmThSmVrT3T2vhE7X9gR69YXLtRBzZMuNU/GzG3IQmPHeU9cSdqtsWNx6uCBBwN7RMSN68VboPXNfBin9lbjxLvvxEhpYI+ImBwfjZGzB+LEwT1x4fJU6Sq0IDVPxsxtyEITxnnBlTTNDMWFY1vixLvnHip0aCtjx+LQwXfqrPPRGDlbjVOnh8oXoHWoeXJlbkMumjTOC64kZio+vzy3EjkyXr4GbWbmwzj17rmarsr+M3H05ET0D9z/c3Iw+qo9NfdMDh6IC2M1XdAa1DxZMrchI00c5wVXEjIUw8eqcfpscSWyJ3qPnIlXt9bcCG1gKoY/qF2N7D0yEW/uKr3rsb4rtvWdj/4j+wqdESMXP4xbNT2QOjVPjsxtyElzx3nBlXSMDcalH1Yie6J3/5k4OnA+dndXau+DdjBzJcYKK++V/YOxu7t4Q0n38eirFtrj78SVRVYmISlqnhyZ25CTJo/zgivJqVTfjr6T52P3rsc7XQ9aweefFFcke6L7ha6a6/PZ9vO3ozjVGfls8fdBIBVqnpyZ25CDZo/zgivp6D4eRwcm4s2+X8W2Oo/FhtY0FbM3Cs2tu2J7PTW//pnoLLZvXH/klhpIh5onU+Y2ZKP547zgSlKsQpKHyfimuJWmd2edtV+Jp4rvRI1fi9lCE9Kl5slXfbUOra7547zgCrDcZq7HdKHZuWHxrTRzuqJjU7H9RczOFNuQKDUP0N6WYZwXXAGW28y1Or9t9rCOp2uPj4eWoOYB2tsyjPOCK8Ayu/X1F4VWTzxVzzsg8xqNbxZYlYSUqHmA9rYc47zgCtBC1m14vtwFbU3NA7S3esd5wRUAAICkCa4AAAAkTXAFWFELv8sxn8a9QwIrRc0DtLfmjPOCK8Ayq/ddDmgXah6gvS3HOC+4Aqyw6a+nyl0Lmv3LaKH1fHQssCoJKVPzAO2tGeO84Aqw3NZvjkq573Fs3Rwd5T5IkZoHaG/LMM4LrgDLbf0z0VloTo5ciVuF9sKG4o+DheamZ2JdoQnJUvMA7W0ZxnnBFWDZVeKprYXm+LWYLTQXNDYYI4Vm5emGrG3CMlDzAO2t+eO84Aqw7Lpie29PoX0ufnd5sXdBpmL44rlCe1/8bFdXoQ0pU/MA7a3547zgCrAC1u16I3oL7cmzh2P4EUfH37p8OC6NFzqq1dhWaELq1DxAe2v2OC+4AqyIHbFzf3FlcjQuHdwTF8amat8JmRmK4dN74sTZ4ol7+6Kvb0ehDa1AzQO0t+aO86v6BybulTthZQzFhb0Hava5L0XvkYnY3V3urXVo75boH5god8MKmYrhY9Xa1cZF9cSrJ8/HywscFV+m5kmLmic35jbkpnnjvCeupGPmekyX+5ZgKd+LgjR0xcvHB6OvWlydfISt+6KvjoEd0qXmyYy5Ddlp3jgvuNI2Ojcs/DI3pKsrtvWdj/6TZ+LV6r6oFE/ki4iInqhU346+k4PRf/x4bKtjYIe0qXmol7kNrak547ytwmTFdhpyo+bJjZonN2qeXHjiCgAAQNIEVwAAAJImuAIAAJA0wRUAAICkCa4AAAAkTXAFAAAgaYIrAAAASRNcAQAASJrgCgAAQNIEVwAAAJImuAIAAJA0wRUAAICkCa4AAAAkbVVE3Ct3AgAAQCpW9Q9MCK5k49DeLdE/MFHuhral5smNmic3ap5c2CoMAABA0gRXAAAAkia4AgAAkDTBFQAAgKQJrgAAACRNcAUAACBpgisAAABJE1wBAABImuAKAABA0gRXAAAAkia4AgAAkDTBFQAAgKQJrgAAACRNcAUAACBpgisAAABJE1wBAABI2qr+gYl75U5IysxQDH/yQVwaHJ1rV8/E0b4dsa58Xx0O7d0S/QMT5W5IwFTcGrsSVy5ejunx0ZgsXKls7YnO3jdi5ws7Yt36woU6qHlagnGeLBjnyVgDxnlPXEnarbFjcerggQdFHhFx43rxFmh9Mx/Gqb3VOPHuOzFSmsxEREyOj8bI2QNx4uCeuHB5qnQVWptxniwY58lYo8Z5wZU0zQzFhWNb4sS75x4a3KGtjB2LQwffqbPOR2PkbDVOnR4qX4DWY5wnF8Z5ctXgcV5wJTFT8fnluVWZkfHyNWgzMx/GqXfP1XRV9p+Joycnon/g/p+Tg9FX7am5Z3LwQFwYq+mCFmKcJyPGebLUnHFecCUhQzF8rBqnzxZXZXqi98iZeHVrzY3QBqZi+IPaFfjeIxPx5q7S+03ru2Jb3/noP7Kv0BkxcvHDuFXTA63AOE9OjPPkqHnjvOBKOsYG49IPqzI90bv/TBwdOB+7uyu190E7mLkSY4VVyMr+wdjdXbyhpPt49FUL7fF34orVeFqNcZ6cGOfJURPHecGV5FSqb0ffyfOxe9fSThqDVvL5J8VV+J7ofqGr5vp8tv387SgO+yOfeQeK1mScJwfGeXLWjHFecCUd3cfj6MBEvNn3q9i2xKPgobVMxeyNQnPrrtheT82vfyY6i+0b120jo7UY58mGcZ5MNXGcF1xJSqNWZCBtk/FNcftY7846a78STxXfDxm/FrOFJrSC+modWp1xnnzVV+tLJ7gCLLeZ6zFdaHZuWHz72Jyu6NhUbH8RszPFNgBJMM5DwwmuAMtt5tpjf8+s4+naTyYAkCDjPDSc4AqwzG59/UWh1RNPPfY7IKPxjZV4gOQY56HxBFeAFrJuw/PlLgDaiHEe5ie4AgAAkDTBFQAAgKQJrgAramnvLzXuvSkAlodxHhpBcAVYZt5fAmhvxnloPMEVYIVNfz1V7lrQ7F9GC63no8NKPEDyjPPw4wmuAMtt/eaolPsex9bN0VHuA2DlGeeh4QRXgOW2/pnoLDQnR67ErUJ7YUPxx8FCc9Mzsa7QBCARxnloOMEVYNlV4qmtheb4tZgtNBc0NhgjhWbl6Yas5wPQcMZ5aDTBFWDZdcX23p5C+1z87vJi7z9NxfDFc4X2vvjZrq5CG4B0GOeh0QRXgBWwbtcb0VtoT549HMOP+FzCrcuH49J4oaNajW2FJgBpMc5DYwmuACtiR+zcX1yNH41LB/fEhbGp2vegZoZi+PSeOHG2eMrkvujr21FoA5Ae4zw00qr+gYl75U5YGUNxYe+Bmnc7lqL3yETs7i731jq0d0v0D0yUu2GFTMXwsWrtCvuieuLVk+fj5To/j6DmSYtxntwY58lN88Z5T1xJx8z1mC73LcFSvpEGaeiKl48PRl+1uCL/CFv3Rd8SJjOQHOM82THOk5kmjvOCK22jc4MDDGhFXbGt73z0nzwTr1b3RaV4CmVERPREpfp29J0cjP7jx2ObyQwZM87TmozzUK9HjfO2CpMV22nIjZonN2qe3Kh5cuGJKwAAAEkTXAEAAEia4AoAAEDSBFcAAACSJrgCAACQNMEVAACApAmuAAAAJE1wBQAAIGmCKwAAAEkTXAEAAEia4AoAAEDSBFcAAACSJrgCAACQtFURca/cCQAAAKlY1T8wIbiSjUN7t0T/wES5G9qWmic3ap7cqHlyYaswAAAASRNcAQAASJrgCgAAQNIEVwAAAJImuAIAAJA0wRUAAICkCa4AAAAkTXAFAAAgaYIrAAAASRNcAQAASJrgCgAAQNIEVwAAAJImuAIAAJA0wRUAAICkCa4AAAAkTXAFAAAgaav6BybulTshKTNDMfzJB3FpcHSuXT0TR/t2xLryfXU4tHdL9A9MlLshLWqeLEzFrbErceXi5ZgeH43JwpXK1p7o7H0jdr6wI9atL1yog5onXWqejDVgbuOJK0m7NXYsTh088KDIIyJuXC/eAm1FzZOFmQ/j1N5qnHj3nRgpTeAjIibHR2Pk7IE4cXBPXLg8VboKLUjNk7FGzW0EV9I0MxQXjm2JE++ee2hwh7ak5snF2LE4dPCdOut8NEbOVuPU6aHyBWgdap5cNXhuI7iSmKn4/PLcqszIePkatCM1T0ZmPoxT756r6arsPxNHT05E/8D9PycHo6/aU3PP5OCBuDBW0wWtQc2TpebMbQRXEjIUw8eqcfpscVWmJ3qPnIlXt9bcCG1CzZOTqRj+oPapU++RiXhzV+mdvvVdsa3vfPQf2VfojBi5+GHcqumB1Kl5ctS8uY3gSjrGBuPSD6syPdG7/0wcHTgfu7srtfdBu1Dz5GTmSowVVt4r+wdjd3fxhpLu49FXLbTH34krnkDRStQ8OWri3EZwJTmV6tvRd/J87N61tJPGoFWpeXLw+SfFJ0890f1CV831+Wz7+dtRnOqMfOa9P1qHmidnzZjbCK6ko/t4HB2YiDf7fhXblngUPLQkNU82pmL2RqG5dVdsr6fm1z8TncX2jeu2TtIi1DyZauLcRnAlKY1akYFWoebJw2R8U9wy2buzztqvxFPFd6LGr8VsoQnpUvPkq75aXzrBFQBorpnrMV1odm5YfMvknK7o2FRsfxGzM8U2JErNQ8MJrgBAc81ce+xv+HU8XfuZEGgJah4aTnAFAJrq1tdfFFo98dRjv/c0Gt94+kQLUPPQeIIrAJCsdRueL3dBW1PzMD/BFQAAgKQJrgAAACRNcAUAltHS3tlr3LuCsFLUPDSC4AoANJV39siNmofGE1wBgGU1/fVUuWtBs38ZLbSejw5Pn2hBah5+PMEVAGiu9ZujUu57HFs3R0e5D1Kk5qHhBFcAoLnWPxOdhebkyJW4VWgvbCj+OFhobnom1hWakCw1Dw0nuAIATVaJp7YWmuPXYrbQXNDYYIwUmpWnG/IMC5aBmodGE1wBgCbriu29PYX2ufjd5cXe+ZuK4YvnCu198bNdXYU2pEzNQ6MJrgBA063b9Ub0FtqTZw/H8CM+EXLr8uG4NF7oqFZjW6EJqVPz0FiCKwCwDHbEzv3FJ1CjcengnrgwNlX77t/MUAyf3hMnzhZPVt0XfX07Cm1oBWoeGmlV/8DEvXInrIyhuLD3QM27HUvRe2QidneXe2sd2rsl+gcmyt2wQtQ8uZmK4WPV2qdKi+qJV0+ej5fr/CSImictap7cNG9u44kr6Zi5HtPlviVYyjfSIAlqnux0xcvHB6OvWnwK9Qhb90XfEibwkB41T2aaOLcRXGkbnRscYEBe1DytqSu29Z2P/pNn4tXqvqgUT16NiIieqFTfjr6Tg9F//HhsM4Gn5al5qNej5ja2CpMV22nIjZonN2qe3Kh5cuGJKwAAAEkTXAEAAEia4AoAAEDSBFcAAACSJrgCAACQNMEVAACApAmuAAAAJE1wBQAAIGmCKwAAAEkTXAEAAEia4AoAAEDSBFcAAACSJrgCAACQtFURca/cCQAAAKlY1T8wIbiSjUN7t0T/wES5G9qWmic3ap7cqHlyYaswAAAASRNcAQAASJrgCgAAQNIEVwAAAJImuAIAAJA0wRUAAICkCa4AAAAkTXAFAAAgaYIrAAAASRNcAQAASJrgCgAAQNIEVwAAAJImuAIAAJA0wRUAAICkCa4AAAAkTXAFAAAgaYIr6ZsZiuHTe+LQ3i1zf04Pxa3yPdBO1Dy5UfPkRs2TmwbUvOBK0m6NHYtTBw/EpcHRB503rhdvgbai5smNmic3ap7cNKrmBVfSNDMUF45tiRPvnovJ8jVoR2qe3Kh5cqPmyU2Da15wJTFT8fnluVWZkfHyNWhHap7cqHlyo+bJTXNqXnAlIUMxfKwap88WV2V6ovfImXh1a82N0CbUPLlR8+RGzZOb5tW84Eo6xgbj0g+rMj3Ru/9MHB04H7u7K7X3QbtQ8+RGzZMbNU9umljzgivJqVTfjr6T52P3rh2xrnwR2pCaJzdqntyoeXLTjJoXXElH9/E4OjARb/b9KratL1+ENqTmyY2aJzdqntw0seYFV5LSqBUZaBVqntyoeXKj5slNs2pecAUAACBpgisAAABJE1wBAABImuAKAABA0gRXAAAAkia4AgAAkDTBFQAAgKQJrgAAACRNcAUAACBpgisAAABJE1wBAABImuAKAABA0gRXAAAAkia4AgAAkDTBFQAAgKSt6h+YuFfuhJUxFBf2HoiRcnedeo9MxO7ucm+tQ3u3RP/ARLkbVoiaJzdqntyoeXLTvJr3xJV0zFyP6XLfEkx/PVXugrSpeXKj5smNmic3Tax5wZW20bmhq9wFbU3Nkxs1T27UPLl5VM3bKkxWbKchN2qe3Kh5cqPmyYUnrgAAACRNcAUAACBpgisAAABJE1wBAABImuAKAABA0gRXAAAAkia4AgAAkDTBFQAAgKQJrgAAACRNcAUAACBpgisAAABJE1wBAABI2v8F3/QUbA7YrQgAAAAASUVORK5CYII=;" parent="1" vertex="1">
                    <mxGeometry x="660" y="150" width="359" height="201.6" as="geometry"/>
                </mxCell>
                <mxCell id="41" value="&lt;p style=&quot;box-sizing: border-box; border: 0px; font-size: 15px; font-style: normal; font-weight: 400; margin: 0px 0px 0.5em; outline: 0px; padding: 0px; vertical-align: baseline; color: rgb(34, 50, 61); font-family: &amp;quot;open sans&amp;quot;, sans-serif; font-variant-ligatures: normal; font-variant-caps: normal; letter-spacing: normal; orphans: 2; text-align: start; text-indent: 0px; text-transform: none; widows: 2; word-spacing: 0px; -webkit-text-stroke-width: 0px; white-space: normal; background-color: rgb(255, 255, 255); text-decoration-thickness: initial; text-decoration-style: initial; text-decoration-color: initial;&quot;&gt;&lt;span style=&quot;box-sizing: border-box; font-style: inherit;&quot;&gt;sum = a ^ b&lt;/span&gt;&lt;/p&gt;&lt;p style=&quot;box-sizing: border-box; border: 0px; font-size: 15px; font-style: normal; font-weight: 400; margin: 0px 0px 0.5em; outline: 0px; padding: 0px; vertical-align: baseline; color: rgb(34, 50, 61); font-family: &amp;quot;open sans&amp;quot;, sans-serif; font-variant-ligatures: normal; font-variant-caps: normal; letter-spacing: normal; orphans: 2; text-align: start; text-indent: 0px; text-transform: none; widows: 2; word-spacing: 0px; -webkit-text-stroke-width: 0px; white-space: normal; background-color: rgb(255, 255, 255); text-decoration-thickness: initial; text-decoration-style: initial; text-decoration-color: initial;&quot;&gt;&lt;span style=&quot;box-sizing: border-box; font-style: inherit;&quot;&gt;cout = a · b&lt;/span&gt;&lt;/p&gt;" style="text;whiteSpace=wrap;html=1;" parent="1" vertex="1">
                    <mxGeometry x="475" y="690" width="110" height="70" as="geometry"/>
                </mxCell>
                <mxCell id="42" value="&lt;p style=&quot;box-sizing: border-box; border: 0px; font-size: 15px; font-style: normal; font-weight: 400; margin: 0px 0px 0.5em; outline: 0px; padding: 0px; vertical-align: baseline; color: rgb(34, 50, 61); font-family: &amp;quot;open sans&amp;quot;, sans-serif; font-variant-ligatures: normal; font-variant-caps: normal; letter-spacing: normal; orphans: 2; text-align: start; text-indent: 0px; text-transform: none; widows: 2; word-spacing: 0px; -webkit-text-stroke-width: 0px; white-space: normal; background-color: rgb(255, 255, 255); text-decoration-thickness: initial; text-decoration-style: initial; text-decoration-color: initial;&quot;&gt;&lt;span style=&quot;font-style: inherit; box-sizing: border-box;&quot;&gt;cout =&amp;nbsp;&lt;/span&gt;&lt;span style=&quot;color: rgb(63, 63, 63);&quot;&gt;(a ^ b). cin&lt;/span&gt;&lt;/p&gt;&lt;p style=&quot;box-sizing: border-box; border: 0px; font-size: 15px; font-style: normal; font-weight: 400; margin: 0px 0px 0.5em; outline: 0px; padding: 0px; vertical-align: baseline; color: rgb(34, 50, 61); font-family: &amp;quot;open sans&amp;quot;, sans-serif; font-variant-ligatures: normal; font-variant-caps: normal; letter-spacing: normal; orphans: 2; text-align: start; text-indent: 0px; text-transform: none; widows: 2; word-spacing: 0px; -webkit-text-stroke-width: 0px; white-space: normal; background-color: rgb(255, 255, 255); text-decoration-thickness: initial; text-decoration-style: initial; text-decoration-color: initial;&quot;&gt;&lt;span style=&quot;color: rgb(63, 63, 63);&quot;&gt;&lt;span style=&quot;color: rgb(63, 63, 63);&quot;&gt;sum = (a ^ b) ^cin&lt;/span&gt;&lt;/span&gt;&lt;/p&gt;" style="text;whiteSpace=wrap;html=1;" parent="1" vertex="1">
                    <mxGeometry x="870" y="855" width="130" height="70" as="geometry"/>
                </mxCell>
                <mxCell id="43" value="&lt;span style=&quot;color: rgb(63, 63, 63); font-family: &amp;quot;open sans&amp;quot;, sans-serif; font-size: 15px; font-style: normal; font-variant-ligatures: normal; font-variant-caps: normal; font-weight: 400; letter-spacing: normal; orphans: 2; text-align: start; text-indent: 0px; text-transform: none; widows: 2; word-spacing: 0px; -webkit-text-stroke-width: 0px; white-space: normal; background-color: rgb(255, 255, 255); text-decoration-thickness: initial; text-decoration-style: initial; text-decoration-color: initial; display: inline !important; float: none;&quot;&gt;(a ^ b). cin&lt;/span&gt;" style="text;whiteSpace=wrap;html=1;" parent="1" vertex="1">
                    <mxGeometry x="1220" y="860" width="100" height="40" as="geometry"/>
                </mxCell>
                <mxCell id="45" value="&lt;span style=&quot;color: rgb(63, 63, 63); font-family: &amp;quot;open sans&amp;quot;, sans-serif; font-size: 15px; font-style: normal; font-variant-ligatures: normal; font-variant-caps: normal; font-weight: 400; letter-spacing: normal; orphans: 2; text-align: start; text-indent: 0px; text-transform: none; widows: 2; word-spacing: 0px; -webkit-text-stroke-width: 0px; white-space: normal; background-color: rgb(255, 255, 255); text-decoration-thickness: initial; text-decoration-style: initial; text-decoration-color: initial; float: none; display: inline !important;&quot;&gt;a ^ b ^cin&lt;/span&gt;" style="text;whiteSpace=wrap;html=1;" parent="1" vertex="1">
                    <mxGeometry x="1550" y="939" width="110" height="40" as="geometry"/>
                </mxCell>
                <mxCell id="46" value="a.b" style="text;html=1;align=center;verticalAlign=middle;whiteSpace=wrap;rounded=0;" parent="1" vertex="1">
                    <mxGeometry x="1220" y="820" width="60" height="30" as="geometry"/>
                </mxCell>
                <mxCell id="47" value="&lt;span style=&quot;color: rgb(34, 50, 61); font-family: &amp;quot;open sans&amp;quot;, sans-serif; font-size: 15px; font-style: normal; font-variant-ligatures: normal; font-variant-caps: normal; font-weight: 400; letter-spacing: normal; orphans: 2; text-align: start; text-indent: 0px; text-transform: none; widows: 2; word-spacing: 0px; -webkit-text-stroke-width: 0px; white-space: normal; background-color: rgb(255, 255, 255); text-decoration-thickness: initial; text-decoration-style: initial; text-decoration-color: initial; display: inline !important; float: none;&quot;&gt;Cout = A·B + B·Cin + A·Cin&lt;/span&gt;" style="text;whiteSpace=wrap;html=1;" parent="1" vertex="1">
                    <mxGeometry x="1544" y="855" width="210" height="40" as="geometry"/>
                </mxCell>
                <mxCell id="49" value="&lt;p class=&quot;whitespace-normal break-words&quot;&gt;Carry_out ifadesini tam forma dönüştürelim:&lt;/p&gt;&lt;ul class=&quot;[&amp;amp;:not(:last-child)_ul]:pb-1 [&amp;amp;:not(:last-child)_ol]:pb-1 list-disc space-y-1.5 pl-7&quot;&gt;&lt;li class=&quot;whitespace-normal break-words&quot;&gt;(A ⊕ B)·Cin = (A·B̄ + Ā·B)·Cin&lt;/li&gt;&lt;br&gt;&lt;li class=&quot;whitespace-normal break-words&quot;&gt;= A·B̄·Cin + Ā·B·Cin&lt;/li&gt;&lt;/ul&gt;&lt;p class=&quot;whitespace-normal break-words&quot;&gt;Bu durumda:&lt;/p&gt;&lt;ul class=&quot;[&amp;amp;:not(:last-child)_ul]:pb-1 [&amp;amp;:not(:last-child)_ol]:pb-1 list-disc space-y-1.5 pl-7&quot;&gt;&lt;li class=&quot;whitespace-normal break-words&quot;&gt;&lt;strong&gt;Carry_out = A·B + A·B̄·Cin + Ā·B·Cin&lt;/strong&gt;&lt;/li&gt;&lt;/ul&gt;&lt;p class=&quot;whitespace-normal break-words&quot;&gt;Boolean algebra kullanarak:&lt;/p&gt;&lt;ul class=&quot;[&amp;amp;:not(:last-child)_ul]:pb-1 [&amp;amp;:not(:last-child)_ol]:pb-1 list-disc space-y-1.5 pl-7&quot;&gt;&lt;li class=&quot;whitespace-normal break-words&quot;&gt;A·B + A·B̄·Cin = A·B + A·Cin·(B̄) = A·(B + Cin·B̄)&lt;/li&gt;&lt;br&gt;&lt;li class=&quot;whitespace-normal break-words&quot;&gt;A·(B + Cin·B̄) = A·B + A·Cin (absorpsiyon kuralı)&lt;/li&gt;&lt;/ul&gt;&lt;p class=&quot;whitespace-normal break-words&quot;&gt;Benzer şekilde:&lt;/p&gt;&lt;ul class=&quot;[&amp;amp;:not(:last-child)_ul]:pb-1 [&amp;amp;:not(:last-child)_ol]:pb-1 list-disc space-y-1.5 pl-7&quot;&gt;&lt;li class=&quot;whitespace-normal break-words&quot;&gt;&lt;strong&gt;Carry_out = A·B + A·Cin + B·Cin&lt;/strong&gt;&lt;/li&gt;&lt;/ul&gt;" style="text;whiteSpace=wrap;html=1;" parent="1" vertex="1">
                    <mxGeometry x="1130" y="1110" width="370" height="310" as="geometry"/>
                </mxCell>
                <mxCell id="50" value="B + B̄·Cin = (B + B̄) · (B + Cin)  → dağıtma özdeşliği&#xa;          = 1 · (B + Cin)&#xa;          = B + Cin" style="text;whiteSpace=wrap;" parent="1" vertex="1">
                    <mxGeometry x="1169" y="1470" width="301" height="140" as="geometry"/>
                </mxCell>
                <mxCell id="53" value="&lt;span style=&quot;color: rgb(63, 63, 63); font-family: &amp;quot;open sans&amp;quot;, sans-serif; font-size: 15px; font-style: normal; font-variant-ligatures: normal; font-variant-caps: normal; font-weight: 400; letter-spacing: normal; orphans: 2; text-align: start; text-indent: 0px; text-transform: none; widows: 2; word-spacing: 0px; -webkit-text-stroke-width: 0px; white-space: normal; background-color: rgb(255, 255, 255); text-decoration-thickness: initial; text-decoration-style: initial; text-decoration-color: initial; float: none; display: inline !important;&quot;&gt;a ^ b ^cin&lt;/span&gt;" style="text;whiteSpace=wrap;html=1;" vertex="1" parent="1">
                    <mxGeometry x="1526" y="1274" width="110" height="40" as="geometry"/>
                </mxCell>
                <mxCell id="54" value="&lt;span style=&quot;color: rgb(34, 50, 61); font-family: &amp;quot;open sans&amp;quot;, sans-serif; font-size: 15px; font-style: normal; font-variant-ligatures: normal; font-variant-caps: normal; font-weight: 400; letter-spacing: normal; orphans: 2; text-align: start; text-indent: 0px; text-transform: none; widows: 2; word-spacing: 0px; -webkit-text-stroke-width: 0px; white-space: normal; background-color: rgb(255, 255, 255); text-decoration-thickness: initial; text-decoration-style: initial; text-decoration-color: initial; display: inline !important; float: none;&quot;&gt;Cout = A·B + B·Cin + A·Cin&lt;/span&gt;" style="text;whiteSpace=wrap;html=1;" vertex="1" parent="1">
                    <mxGeometry x="1520" y="1190" width="210" height="40" as="geometry"/>
                </mxCell>
            </root>
        </mxGraphModel>
    </diagram>
</mxfile>